<?xml version="1.0" encoding="UTF-8"?>
<svg width="484px" height="379px" viewBox="0 0 484 379" version="1.1" xmlns="http://www.w3.org/2000/svg" xmlns:xlink="http://www.w3.org/1999/xlink">
    <!-- Generator: Sketch 48.2 (47327) - http://www.bohemiancoding.com/sketch -->
    <title>new way</title>
    <desc>Created with Sketch.</desc>
    <defs></defs>
    <g id="Page-1" stroke="none" stroke-width="1" fill="none" fill-rule="evenodd">
        <g id="new-way">
            <g id="New-way" transform="translate(65.000000, 14.000000)">
                <circle id="Oval-4" fill="#EFF9F3" cx="173.5" cy="173.5" r="173.5"></circle>
                <rect id="Rectangle-13" fill-opacity="0.315585371" fill="#008855" x="26" y="234" width="321" height="13" rx="6.5"></rect>
                <rect id="Rectangle-13" fill-opacity="0.315585371" fill="#008855" x="26" y="194" width="183" height="13" rx="6.5"></rect>
                <g id="lady-sitting" transform="translate(47.000000, 32.000000)">
                    <ellipse id="seat" fill="#496A7A" cx="240.202198" cy="199.630153" rx="27.3846154" ry="9.18963486"></ellipse>
                    <path d="M205.8125,256.319935 C209.070536,262.18566 210.699554,261.004877 209.070536,266.646054 C207.441518,272.287231 200.975876,273.136539 196.784135,274.867234 C192.592394,276.597928 186.467531,277.887165 180.460337,278.227805 C174.453142,278.568444 163.565007,271.754122 168.737826,270.472523 C173.910646,269.190923 186.037743,266.178629 188.546404,261.249282 C191.055065,256.319935 202.554464,250.454211 205.8125,256.319935 Z" id="foot" fill="#D66666" transform="translate(188.546404, 266.053142) rotate(-7.000000) translate(-188.546404, -266.053142) "></path>
                    <path d="M239.757488,225.645464 C245.399453,225.645464 249.905995,225.185676 250.64868,230.322768 C251.391366,235.459859 247.013189,245.941786 251.391366,249.045732 C255.769542,252.149678 260.147719,255.391102 255.769542,258.701264 C251.391366,262.011427 244.617035,267.897009 242.187262,266.444326 C239.757488,264.991643 237.327715,261.160592 239.757488,258.701264 C242.187262,256.241937 233.348388,244.618943 229.450054,242.035886 C225.551719,239.452829 234.115524,225.645464 239.757488,225.645464 Z" id="back-foot" fill="#D66666"></path>
                    <path d="M206.093681,167.707781 C187.162843,167.707781 178.956628,168.156876 170.567033,178.424948 C162.177438,188.693021 174.885611,212.32242 176.756078,229.148189 C178.626545,245.973958 179.309157,260.948358 191.118773,258.756349 C202.928388,256.56434 201.720089,265.353762 203.005271,247.250975 C204.290453,229.148189 206.093681,217.270097 206.093681,206.293249 C206.093681,195.316402 225.024519,167.707781 206.093681,167.707781 Z" id="back-leg" fill="#008855" transform="translate(191.118773, 213.362481) rotate(-7.000000) translate(-191.118773, -213.362481) "></path>
                    <path d="M156.71804,90.6107192 C151.649169,86.0317962 147.28257,77.948561 153.656901,70.994005 C160.031232,64.0394489 171.133727,62.8735977 186.761006,60.4928957 C202.388286,58.1121937 223.616355,55.8193529 223.847548,68.838025 C224.078741,81.8566971 213.47166,82.4598984 233.74019,86.5353088 C254.008719,90.6107192 259.442632,80.7195697 257.153296,92.6433554 C254.863961,104.567141 263.98306,108.787861 269.886313,113.801021 C275.789566,118.814181 275.681791,125.760289 269.886313,129.92863 C264.090835,134.09697 257.886857,139.289232 240.867203,137.327561 C223.847548,135.365889 217.18466,128.936811 203.542514,120.199686 C189.900369,111.46256 161.78691,95.1896421 156.71804,90.6107192 Z" id="hair" fill="#223843"></path>
                    <path d="M145.301975,144.374724 C149.80546,139.035998 175.046068,141.399091 178,136.662213 C180.953932,131.925335 177.422356,112.430967 183.567084,108.445635 C189.711813,104.460303 180.264732,98.9840989 209.250859,103.343676 C238.236985,107.703254 255.480735,151.193629 261.605598,166 C265.688839,175.870914 265.688839,185.341106 261.605598,194.410575 C229.790073,177.803243 210.521512,169.764858 203.799914,170.295421 C193.717518,171.091265 196.525876,162.892999 192.439578,161.237154 C188.35328,159.581309 180.293767,154.192175 178.397321,154.757362 C176.500876,155.322549 154.742943,161.502945 150.022459,157.15406 C145.301975,152.805175 140.798489,149.71345 145.301975,144.374724 Z" id="body" fill="#3785E0"></path>
                    <path d="M243.547252,166.401237 C225.608276,159.049728 182.156495,163.585031 178.36943,178.792541 C174.582366,194.000051 200.850513,226.027988 214.210277,233.290384 C227.570041,240.552781 234.962482,244.373148 239.254867,240.552781 C243.547252,236.732413 241.912057,225.518598 234.962482,214.822903 C230.329431,207.69244 228.012906,202.381475 228.012906,198.890007 C224.712236,198.890007 227.028762,198.890007 234.962482,198.890007 C246.863062,198.890007 252.39225,202.948888 260.425859,195.14379 C268.459467,187.338693 261.486227,173.752746 243.547252,166.401237 Z" id="front-leg" fill="#00BB77"></path>
                    <path d="M158.610736,150.500129 C156.272267,145.474547 154.7188,143.123675 150.678034,143.123675 C146.637268,143.123675 136.301895,146.522434 133.154105,148.511282 C130.006315,150.500129 129.152249,153.159563 131.153177,154.46102 C133.154105,155.762478 138.304769,154.546562 140.40978,155.762478 C142.514792,156.978394 150.357029,164.802415 153.010667,161.756515 C155.664304,158.710615 160.949206,155.52571 158.610736,150.500129 Z" id="hand-2" fill="#F9E19E"></path>
                    <path d="M211.858183,114.630613 C215.336274,129.939543 215.753462,162.824519 211.858183,165.018055 C207.962905,167.211592 170.641913,175.337806 150.005649,165.018055 C129.369385,154.698305 141.659413,152.800851 138.500422,148.302268 C135.341432,143.803685 149.252552,143.803685 154.246576,143.803685 C159.240601,143.803685 182.416666,148.837034 186.127036,143.803685 C189.837407,138.770337 189.545244,112.959493 192.710062,108.344817 C195.87488,103.730142 208.380093,99.3216836 211.858183,114.630613 Z" id="front-arm" fill="#57A0F5"></path>
                    <path d="M155.059272,81.3151318 C155.059272,89.2216394 163.401494,106.502613 168.372596,110.093842 C173.343698,113.685071 181.328331,110.098425 186.00297,104.655827 C189.119397,101.027428 190.751471,98.1602498 190.899193,96.0542918 C190.870667,92.2191672 188.67674,89.4563702 184.317411,87.7659011 C177.778417,85.2301973 178.498134,79.958683 176.013393,78.8191438 C173.528651,77.6796047 155.059272,73.4086241 155.059272,81.3151318 Z" id="face" fill="#F9E19E"></path>
                    <path d="M114.160887,150.713111 L87.5599304,101.615322 C87.2276233,101.001978 86.5997496,100.606094 85.9030698,100.570647 L42.6689685,98.3708965 C41.0142547,98.2867047 39.6045932,99.5598643 39.5204014,101.214578 C39.5006587,101.602602 39.5564762,101.990767 39.6847528,102.357507 L61.0423409,163.418302 C61.4463097,164.573238 62.5111871,165.367119 63.7333879,165.424514 L123.692101,168.240197 L131.761973,168.619161 C132.636648,168.660236 133.485612,168.317111 134.086112,167.679817 L147.039492,153.932746 L114.160887,150.713111 Z" id="laptop" fill="#496A7A"></path>
                    <path d="M105.59337,142.690721 L88.4655744,107.036161 C88.1559167,106.391553 87.525646,105.961332 86.8125257,105.907795 L51.3618417,103.24633 C50.260372,103.163637 49.3004184,103.989519 49.2177254,105.090989 C49.2007302,105.317365 49.2223999,105.544983 49.2818057,105.764086 L62.0613924,152.898237 C62.3409369,153.929264 63.3813838,154.558598 64.4243413,154.327513 L104.223234,145.509387 C105.30165,145.270445 105.982178,144.202516 105.743237,143.1241 C105.710062,142.974372 105.659776,142.828957 105.59337,142.690721 Z" id="screen]" fill="#00BB77"></path>
                    <path d="M149.781531,155.680624 C146.643854,151.388311 144.559466,149.380448 139.137707,149.380448 C133.715948,149.380448 119.848305,152.283304 115.62471,153.981964 C111.401116,155.680624 110.255159,157.952027 112.939935,159.063593 C115.62471,160.175159 122.535691,159.136654 125.360122,160.175159 C128.184553,161.213663 138.706994,167.896104 142.267552,165.294623 C145.82811,162.693142 152.919207,159.972937 149.781531,155.680624 Z" id="Path-12" fill="#F9E19E"></path>
                    <path d="M196.444883,97.2274367 C190.630237,92.1758871 181.629378,85.5677819 179.101803,88.2531839 C176.574227,90.9385858 168.895227,102.448542 173.015144,105.369184 C177.135062,108.289826 178.580432,107.225136 184.133897,108.289826 C189.687363,109.354516 202.25953,102.278986 196.444883,97.2274367 Z" id="Path-13" fill="#F9E19E"></path>
                    <g id="logo" stroke-width="1" transform="translate(63.375824, 120.442874)" fill="#FFFFFF">
                        <g id="Group-2" fill-rule="nonzero">
                            <path d="M6.06373626,8.60306243 C4.44329639,8.60306243 3.12967033,7.2899753 3.12967033,5.67020024 C3.12967033,4.05042517 4.44329639,2.73733804 6.06373626,2.73733804 C7.68417613,2.73733804 8.9978022,4.05042517 8.9978022,5.67020024 C8.9978022,7.2899753 7.68417613,8.60306243 6.06373626,8.60306243 Z M6.06373626,7.42991755 C7.03600019,7.42991755 7.82417582,6.64206527 7.82417582,5.67020024 C7.82417582,4.6983352 7.03600019,3.91048292 6.06373626,3.91048292 C5.09147234,3.91048292 4.3032967,4.6983352 4.3032967,5.67020024 C4.3032967,6.64206527 5.09147234,7.42991755 6.06373626,7.42991755 Z" id="Oval"></path>
                            <path d="M0,5.86572438 C0,7.37751444 1.34246446,8.60306243 2.9984783,8.60306243 C3.78782733,8.60306243 4.53031704,8.32266163 5.08571429,7.83098858 L4.25075398,7.04494216 C3.91694252,7.34045334 3.47294904,7.50812721 2.9984783,7.50812721 C2.00487,7.50812721 1.19939132,6.77279842 1.19939132,5.86572438 L0,5.86572438 Z" id="Combined-Shape"></path>
                            <path d="M10.7582418,8.60306243 C9.13780189,8.60306243 7.82417582,7.2899753 7.82417582,5.67020024 C7.82417582,4.05042517 9.13780189,2.73733804 10.7582418,2.73733804 C12.3786816,2.73733804 13.6923077,4.05042517 13.6923077,5.67020024 C13.6923077,7.2899753 12.3786816,8.60306243 10.7582418,8.60306243 Z M10.7582418,7.42991755 C11.7305057,7.42991755 12.5186813,6.64206527 12.5186813,5.67020024 C12.5186813,4.6983352 11.7305057,3.91048292 10.7582418,3.91048292 C9.78597784,3.91048292 8.9978022,4.6983352 8.9978022,5.67020024 C8.9978022,6.64206527 9.78597784,7.42991755 10.7582418,7.42991755 Z" id="Oval"></path>
                            <path d="M15.4527473,8.60306243 C13.8323074,8.60306243 12.5186813,7.2899753 12.5186813,5.67020024 C12.5186813,4.05042517 13.8323074,2.73733804 15.4527473,2.73733804 C17.0731871,2.73733804 18.3868132,4.05042517 18.3868132,5.67020024 C18.3868132,7.2899753 17.0731871,8.60306243 15.4527473,8.60306243 Z M15.4527473,7.42991755 C16.4250112,7.42991755 17.2131868,6.64206527 17.2131868,5.67020024 C17.2131868,4.6983352 16.4250112,3.91048292 15.4527473,3.91048292 C14.4804833,3.91048292 13.6923077,4.6983352 13.6923077,5.67020024 C13.6923077,6.64206527 14.4804833,7.42991755 15.4527473,7.42991755 Z" id="Oval"></path>
                            <path d="M20.1472527,8.60306243 C18.5268129,8.60306243 17.2131868,7.2899753 17.2131868,5.67020024 C17.2131868,4.05042517 18.5268129,2.73733804 20.1472527,2.73733804 C21.7676926,2.73733804 23.0813187,4.05042517 23.0813187,5.67020024 C23.0813187,7.2899753 21.7676926,8.60306243 20.1472527,8.60306243 Z M20.1472527,7.42991755 C21.1195167,7.42991755 21.9076923,6.64206527 21.9076923,5.67020024 C21.9076923,4.6983352 21.1195167,3.91048292 20.1472527,3.91048292 C19.1749888,3.91048292 18.3868132,4.6983352 18.3868132,5.67020024 C18.3868132,6.64206527 19.1749888,7.42991755 20.1472527,7.42991755 Z" id="Oval"></path>
                            <path d="M17.2131868,5.6629586 L17.2131868,10.7610697 C17.2131868,11.0810252 17.475912,11.3404005 17.8,11.3404005 C18.124088,11.3404005 18.3868132,11.0810252 18.3868132,10.7610697 L18.3868132,5.6629586 C18.3868132,5.34300303 18.124088,5.0836278 17.8,5.0836278 C17.475912,5.0836278 17.2131868,5.34300303 17.2131868,5.6629586 Z" id="Line"></path>
                            <path d="M0,0.579330803 L0,5.67744187 C0,5.99739744 0.262725213,6.25677267 0.586813187,6.25677267 C0.910901161,6.25677267 1.17362637,5.99739744 1.17362637,5.67744187 L1.17362637,0.579330803 C1.17362637,0.259375235 0.910901161,0 0.586813187,0 C0.262725213,0 0,0.259375235 0,0.579330803 Z" id="Line"></path>
                        </g>
                    </g>
                </g>
            </g>
        </g>
    </g>
</svg>